<svg id="Capa_1" data-name="Capa 1" xmlns="http://www.w3.org/2000/svg" viewBox="0 0 600 600"><defs><style>.cls-1{fill:#d865db;}</style></defs><title>add_icon_hover</title><path class="cls-1" d="M334.46,29.43V250.6a16,16,0,0,0,16,16H562a16,16,0,0,1,16,16v32.64a16,16,0,0,1-16,16H350.46a16,16,0,0,0-16,16V570.57a16,16,0,0,1-16,16h-37a16,16,0,0,1-16-16V347.24a16,16,0,0,0-16-16H38a16,16,0,0,1-16-16V282.6a16,16,0,0,1,16-16H249.5a16,16,0,0,0,16-16V29.43a16,16,0,0,1,16-16h37A16,16,0,0,1,334.46,29.43Z"/></svg>