<svg id="Layer_1" data-name="Layer 1" xmlns="http://www.w3.org/2000/svg" viewBox="0 0 1200 306"><defs><style>.cls-1,.cls-3,.cls-4,.cls-5{fill:#1e2022;}.cls-2{font-size:163px;fill:#5400cf;font-family:Graphik-Bold, Graphik;font-weight:700;}.cls-3,.cls-4,.cls-5{font-family:Graphik-Light, Graphik;font-weight:300;}.cls-4{letter-spacing:-0.01em;}.cls-5{letter-spacing:-0.02em;}</style></defs><title>portfolio_project-thumbnails</title><path class="cls-1" d="M487.27,56V90.48h-6.85V67.76l-4.77,22.72h-8.31l-4.81-22.72V90.48h-6.85V56h9.5l6.32,28,6.27-28Z"/><path class="cls-1" d="M493.87,90.48V57.73h6.5V90.48Z"/><path class="cls-1" d="M513.33,69.39V90.48h-6.5V57.73h9l5.32,21.2V57.73h6.5V90.48h-9Z"/><path class="cls-1" d="M534.14,90.48V57.73h6.5V90.48Z"/><path class="cls-1" d="M561.83,77H546.49V71.22h15.34Z"/><path class="cls-1" d="M567.15,56h15.12a5.1,5.1,0,0,1,3.55,1.37,4.37,4.37,0,0,1,1.5,3.34v8.88a7.71,7.71,0,0,1-3,6.34,11,11,0,0,1-7.07,2.26H574V90.48h-6.85ZM574,62.38v9.43h3.24q3.24,0,3.24-2.22V62.38Z"/><path class="cls-1" d="M598.74,78.8V90.48h-6.5V57.73H606.6A4.77,4.77,0,0,1,610,59a4.13,4.13,0,0,1,1.45,3.17v8.44a6.12,6.12,0,0,1-2.51,5.14,6.14,6.14,0,0,1,2.51,5.17v9.54h-6.52V80.94a2,2,0,0,0-.69-1.53,2.42,2.42,0,0,0-1.63-.61Zm3.83-6a2.35,2.35,0,0,0,1.63-.63,1.87,1.87,0,0,0,.69-1.49V63.78h-6.15v9Z"/><path class="cls-1" d="M631.65,57.73A4.81,4.81,0,0,1,635,59a4.17,4.17,0,0,1,1.45,3.17V86A4.13,4.13,0,0,1,635,89.18a4.82,4.82,0,0,1-3.36,1.3h-9.56a4.88,4.88,0,0,1-3.38-1.3A4.14,4.14,0,0,1,617.28,86V62.19A4.18,4.18,0,0,1,618.71,59a4.87,4.87,0,0,1,3.38-1.29Zm-7.87,6.05V84.43h6.16V63.78Z"/><path class="cls-1" d="M643.83,84.43c2.07,0,3.1-.72,3.1-2.14V57.73h6.5V82.29a7.4,7.4,0,0,1-2.85,6,10.55,10.55,0,0,1-6.75,2.14h-3.46v-6Z"/><path class="cls-1" d="M666.11,84.43H677v6H659.61V57.73H677v6.05H666.11v7.28h9v6.07h-9Z"/><path class="cls-1" d="M694,63.78h-6.15V84.43H694v-5h6.53V86a4.13,4.13,0,0,1-1.45,3.16,4.82,4.82,0,0,1-3.36,1.3H686.2a4.87,4.87,0,0,1-3.38-1.3A4.14,4.14,0,0,1,681.39,86V62.19A4.18,4.18,0,0,1,682.82,59a4.86,4.86,0,0,1,3.38-1.29h9.56A4.81,4.81,0,0,1,699.12,59a4.17,4.17,0,0,1,1.45,3.17v6.59H694Z"/><path class="cls-1" d="M709.69,63.78h-6.35V57.73h19.17v6.05h-6.34v26.7h-6.48Z"/><path class="cls-1" d="M737.8,63.78h-6.16V69c0,1.4,1,2.1,3.08,2.1a10.38,10.38,0,0,1,6.72,2.16,7.31,7.31,0,0,1,2.88,6V86a4.13,4.13,0,0,1-1.45,3.16,4.82,4.82,0,0,1-3.36,1.3H730a4.88,4.88,0,0,1-3.38-1.3A4.14,4.14,0,0,1,725.14,86V79.41h6.5v5h6.16V79.25c0-1.41-1-2.12-3.08-2.12A10.43,10.43,0,0,1,728,75a7.33,7.33,0,0,1-2.87-6V62.19A4.18,4.18,0,0,1,726.57,59,4.87,4.87,0,0,1,730,57.73h9.56A4.81,4.81,0,0,1,742.87,59a4.17,4.17,0,0,1,1.45,3.17v6.59H737.8Z"/><text class="cls-2" transform="translate(2.37 244)">BUDGET<tspan class="cls-3" x="685.08" y="0">t</tspan><tspan class="cls-4" x="740.18" y="0">r</tspan><tspan class="cls-3" x="795.27" y="0">ac</tspan><tspan class="cls-5" x="972.12" y="0">k</tspan><tspan class="cls-3" x="1048.25" y="0">er</tspan></text></svg>